<?xml version="1.0" encoding="utf-8"?>
<!-- Generator: Adobe Illustrator 22.1.0, SVG Export Plug-In . SVG Version: 6.00 Build 0)  -->
<svg version="1.1" id="Layer_1" xmlns="http://www.w3.org/2000/svg" xmlns:xlink="http://www.w3.org/1999/xlink" x="0px" y="0px"
	 viewBox="0 0 991 431.6" style="enable-background:new 0 0 991 431.6;" xml:space="preserve">
<style type="text/css">
	.st0{fill:none;}
	.st1{fill:#FFFFFF;}
</style>
<title>contact</title>
<rect class="st0" width="991" height="431.6"/>
<rect x="101" y="44.4" width="788" height="343.2"/>
<path class="st1" d="M357.1,254.5c2,0,4.1-0.4,5.9-1.2c3.6-1.5,6.5-4.4,8-8c0.8-1.9,1.2-3.9,1.2-5.9h5c0,5.3-2.1,10.5-5.8,14.3
	c-1.8,1.8-4,3.3-6.4,4.3c-10.1,4.4-21.9-0.3-26.3-10.4c0-0.1-0.1-0.2-0.1-0.2c-1.1-2.5-1.6-5.2-1.6-7.9v-35.2c0-2.7,0.5-5.4,1.6-7.9
	c2-4.8,5.8-8.6,10.7-10.6c5-2.1,10.7-2.1,15.8,0c4.8,2,8.6,5.8,10.7,10.6c1.1,2.5,1.6,5.2,1.6,7.9h-5c0-2-0.4-4.1-1.2-5.9
	c-1.5-3.6-4.4-6.5-8-8c-3.8-1.6-8.1-1.6-11.8,0c-3.6,1.5-6.5,4.4-8,8c-0.8,1.9-1.2,3.9-1.2,5.9v35.2c0,2,0.4,4.1,1.2,5.9
	c1.5,3.6,4.4,6.5,8,8C353.1,254.1,355.1,254.5,357.1,254.5z"/>
<path class="st1" d="M407.8,259.4c-2.7,0-5.4-0.5-7.9-1.6c-4.8-2-8.6-5.8-10.7-10.6c-1.1-2.5-1.6-5.2-1.6-7.9v-35.2
	c0-2.7,0.5-5.4,1.6-7.9c2-4.8,5.8-8.6,10.7-10.6c5-2.1,10.7-2.1,15.8,0c4.8,2,8.6,5.8,10.7,10.6c1.1,2.5,1.6,5.2,1.6,7.9v35.2
	c0,2.7-0.5,5.4-1.6,7.9c-2,4.8-5.8,8.6-10.7,10.6C413.2,258.9,410.5,259.5,407.8,259.4z M407.8,188.9c-2,0-4.1,0.4-5.9,1.2
	c-3.6,1.5-6.5,4.4-8,8c-0.8,1.9-1.2,3.9-1.2,5.9v35.3c0,2,0.4,4.1,1.2,5.9c1.5,3.6,4.4,6.5,8,8c3.8,1.6,8.1,1.6,11.8,0
	c3.6-1.5,6.5-4.4,8-8c0.8-1.9,1.2-3.9,1.2-5.9v-35.2c0-2-0.4-4.1-1.2-5.9c-1.5-3.6-4.4-6.5-8-8C411.9,189.4,409.8,189,407.8,188.9z"
	/>
<path class="st1" d="M458.5,184c2.7,0,5.4,0.5,7.9,1.6c4.8,2,8.6,5.8,10.6,10.6c1.1,2.5,1.6,5.2,1.6,7.9v54.6h-5v-54.6
	c0-2-0.4-4.1-1.2-5.9c-1.5-3.6-4.4-6.5-8-8c-3.8-1.6-8.1-1.6-11.8,0c-3.6,1.5-6.5,4.4-8,8c-0.8,1.9-1.2,3.9-1.2,5.9v54.6h-5v-74h5
	v6.1C447.1,186.5,452.7,183.9,458.5,184z"/>
<path class="st1" d="M494,221.6v17.7c0,2,0.3,4,1,5.9c0.6,1.8,1.6,3.4,2.8,4.8c1.2,1.3,2.6,2.4,4.2,3.2c1.6,0.8,3.3,1.2,5.1,1.2v5
	c-2.4,0-4.8-0.5-7-1.6c-2.2-1-4.1-2.5-5.8-4.3c-1.7-1.9-3-4-3.9-6.4c-1-2.5-1.4-5.2-1.4-7.9v-75.6h5v21h16.2v5h-16.2L494,221.6z"/>
<path class="st1" d="M539,184c5.2-0.1,10.1,2,13.6,5.9c1.7,1.9,3,4,3.9,6.4c1,2.5,1.5,5.2,1.5,7.9v54.6h-5v-6.2
	c-1.9,2.1-4.2,3.8-6.8,5c-2.6,1.3-5.5,1.9-8.4,1.9c-2.7,0-5.4-0.5-7.9-1.6c-4.8-2-8.6-5.8-10.7-10.6c-1.1-2.5-1.6-5.2-1.6-7.9v-4.2
	c0-6.2,3.8-10.7,11.4-13.5c0.9-0.4,2.4-1,4.6-1.8c2.2-0.8,4.5-1.7,6.9-2.6s4.8-1.9,7.1-2.7s4-1.5,5.3-2v-8.4
	c0.1-3.9-1.3-7.8-3.8-10.7c-2.5-2.9-6.2-4.6-10.1-4.4c-2,0-4,0.4-5.8,1.2c-1.8,0.8-3.4,1.9-4.8,3.2c-2.9,2.8-4.5,6.7-4.5,10.7H519
	c0-2.7,0.5-5.4,1.6-7.9c2-4.8,5.8-8.6,10.7-10.6C533.7,184.6,536.4,184,539,184z M553,221.6v-3.8c-1.5,0.6-3.3,1.3-5.5,2.1
	c-2.2,0.8-4.4,1.6-6.6,2.5l-6,2.3l-3.9,1.5c-2,0.8-3.9,1.8-5.5,3.1c-1.8,1.3-2.8,3.5-2.7,5.7v4.2c0,2,0.4,4.1,1.2,5.9
	c1.5,3.6,4.4,6.5,8,8c3.8,1.6,8.1,1.6,11.8,0c3.6-1.5,6.5-4.4,8-8c0.8-1.9,1.2-3.9,1.2-5.9L553,221.6z"/>
<path class="st1" d="M588.5,254.5c2,0,4.1-0.4,5.9-1.2c3.6-1.5,6.5-4.4,8-8c0.8-1.9,1.2-3.9,1.2-5.9h5c0,2.7-0.5,5.4-1.6,7.9
	c-2,4.8-5.8,8.6-10.7,10.6c-5,2.1-10.7,2.1-15.8,0c-4.8-2-8.6-5.9-10.6-10.7c-1.1-2.5-1.6-5.2-1.6-7.9v-35.2c0-2.7,0.5-5.4,1.6-7.9
	c2-4.8,5.8-8.6,10.7-10.6c5-2.1,10.7-2.1,15.8,0c4.8,2,8.6,5.8,10.7,10.6c1.1,2.5,1.6,5.2,1.6,7.9h-4.9c0-2-0.4-4.1-1.2-5.9
	c-1.5-3.6-4.4-6.5-8-8c-3.8-1.6-8.1-1.6-11.8,0c-3.6,1.5-6.5,4.4-8,8c-0.8,1.9-1.2,3.9-1.2,5.9v35.2c0,2,0.4,4.1,1.2,5.9
	c1.5,3.6,4.4,6.5,8,8C584.5,254.1,586.5,254.5,588.5,254.5z"/>
<path class="st1" d="M624.1,221.6v17.7c0,2,0.3,4,1,5.9c0.6,1.8,1.6,3.4,2.8,4.8c1.2,1.3,2.6,2.4,4.2,3.2c1.6,0.8,3.3,1.2,5.1,1.2v5
	c-2.4,0-4.8-0.5-7-1.6c-2.2-1-4.1-2.5-5.8-4.3c-1.7-1.9-3-4-3.9-6.4c-1-2.5-1.4-5.2-1.4-7.9v-75.6h5v21h16.2v5h-16.2V221.6z"/>
<g>
	<g>
		<path class="st1" d="M722.7,214L677,168.3c-1.1-1.1-2.8-1.1-3.9,0c-1.1,1.1-1.1,2.8,0,3.9l43.8,43.8l-43.8,43.8
			c-1.1,1.1-1.1,2.8,0,3.9c0.5,0.5,1.2,0.8,1.9,0.8c0.7,0,1.4-0.3,1.9-0.8l45.7-45.7C723.8,216.8,723.8,215.1,722.7,214z"/>
	</g>
	<g>
	</g>
	<g>
	</g>
	<g>
	</g>
	<g>
	</g>
	<g>
	</g>
	<g>
	</g>
	<g>
	</g>
	<g>
	</g>
	<g>
	</g>
	<g>
	</g>
	<g>
	</g>
	<g>
	</g>
	<g>
	</g>
	<g>
	</g>
	<g>
	</g>
</g>
</svg>
