<?xml version="1.0" encoding="utf-8"?>
<!-- Generator: Adobe Illustrator 22.1.0, SVG Export Plug-In . SVG Version: 6.00 Build 0)  -->
<svg version="1.1" id="Layer_1" xmlns="http://www.w3.org/2000/svg" xmlns:xlink="http://www.w3.org/1999/xlink" x="0px" y="0px"
	 viewBox="0 0 991 431.6" style="enable-background:new 0 0 991 431.6;" xml:space="preserve">
<style type="text/css">
	.st0{fill:none;}
	.st1{fill:#FFFFFF;}
</style>
<title>facade</title>
<rect class="st0" width="991" height="431.6"/>
<rect x="101" y="44.4" width="788" height="343.2"/>
<path class="st1" d="M281,224.6v17.7c0,2,0.3,4,1,5.9c0.6,1.8,1.6,3.4,2.9,4.8c1.2,1.3,2.6,2.4,4.2,3.2c1.6,0.8,3.3,1.2,5.1,1.2v5
	c-2.4,0-4.8-0.5-7-1.6c-2.2-1-4.1-2.5-5.8-4.3c-1.7-1.9-3-4-3.9-6.4c-1-2.5-1.5-5.2-1.5-7.9v-75.6h5v21h16.2v5H281V224.6z"/>
<path class="st1" d="M324.8,187c2.7,0,5.4,0.5,7.9,1.6c4.8,2,8.6,5.8,10.7,10.6c1.1,2.5,1.6,5.2,1.6,7.9v54.6h-5v-54.6
	c0-2-0.4-4.1-1.2-5.9c-1.5-3.6-4.4-6.5-8-8c-3.8-1.6-8.1-1.6-11.9,0c-3.6,1.5-6.5,4.4-8,8c-0.8,1.9-1.2,3.9-1.2,5.9v54.6h-5V154.1h5
	v39.8C313.4,189.5,318.9,186.9,324.8,187z"/>
<path class="st1" d="M384.2,220.6c-0.9,0.3-2.4,0.9-4.5,1.7s-4.4,1.7-6.8,2.6s-4.8,1.8-7.1,2.7s-4.1,1.5-5.4,2v12.7
	c0,2,0.4,4.1,1.2,5.9c1.5,3.6,4.4,6.5,8,8c3.8,1.6,8.1,1.6,11.8,0c3.6-1.5,6.5-4.4,8-8c0.8-1.9,1.2-3.9,1.2-5.9h5
	c0,2.7-0.5,5.4-1.6,7.9c-2,4.8-5.8,8.6-10.7,10.6c-5,2.1-10.7,2.1-15.8,0c-4.8-2-8.6-5.8-10.7-10.6c-1.1-2.5-1.6-5.2-1.6-7.9v-35.2
	c0-2.7,0.5-5.4,1.6-7.9c2-4.8,5.8-8.6,10.7-10.6c5-2.1,10.7-2.1,15.8,0c4.8,2,8.7,5.8,10.7,10.6c1,2.4,1.6,5.1,1.6,7.7v0.2
	C395.6,213.3,391.8,217.8,384.2,220.6z M375.5,192c-2,0-4.1,0.4-5.9,1.2c-3.6,1.5-6.5,4.4-8,8c-0.8,1.9-1.2,3.9-1.2,5.9v17.3
	c1.5-0.6,3.3-1.3,5.5-2.2s4.4-1.7,6.6-2.5c2.2-0.8,4.2-1.6,6.1-2.3l4-1.5c1.9-0.8,3.8-1.8,5.4-3.1c1.8-1.4,2.8-3.6,2.7-5.9
	c0-2-0.4-4-1.2-5.9c-0.8-1.8-1.9-3.4-3.2-4.7c-1.4-1.4-3-2.5-4.8-3.2C379.5,192.3,377.5,191.9,375.5,192L375.5,192z"/>
<path class="st1" d="M451.7,192.7h-16.2V275c0,2.7-0.5,5.4-1.4,7.9c-0.9,2.4-2.2,4.6-3.9,6.5c-1.6,1.8-3.6,3.3-5.8,4.4
	c-2.2,1.1-4.6,1.6-7,1.6v-4.9c1.8,0,3.5-0.4,5.1-1.2c1.6-0.8,3-1.9,4.2-3.2c1.2-1.4,2.2-3,2.8-4.8c0.7-1.9,1-3.9,1-5.9V174.3
	c0-2.7,0.5-5.4,1.4-7.9c0.9-2.3,2.2-4.5,3.9-6.4c1.6-1.8,3.6-3.2,5.8-4.3c2.2-1,4.6-1.6,7-1.6v5c-1.8,0-3.5,0.4-5.1,1.2
	c-1.6,0.8-3,1.9-4.2,3.3c-1.2,1.4-2.2,3-2.8,4.8c-0.7,1.9-1,3.9-1,5.9v13.5h16.2L451.7,192.7z"/>
<path class="st1" d="M476,187c5.2-0.1,10.1,2,13.6,5.9c1.7,1.9,3,4,3.9,6.4c1,2.5,1.4,5.2,1.4,7.9v54.6h-5v-6.2
	c-1.9,2.1-4.2,3.8-6.8,5c-2.6,1.3-5.5,1.9-8.4,1.9c-2.7,0-5.4-0.5-7.9-1.6c-4.8-2-8.6-5.8-10.7-10.6c-1.1-2.5-1.6-5.2-1.6-7.9v-4.2
	c0-6.2,3.8-10.7,11.4-13.5c0.9-0.4,2.4-1,4.6-1.8c2.2-0.8,4.5-1.7,6.9-2.6s4.8-1.9,7.1-2.7s4-1.5,5.3-2v-8.4
	c0.1-3.9-1.3-7.8-3.8-10.7c-2.5-2.9-6.2-4.6-10.1-4.5c-2,0-4,0.4-5.8,1.2c-1.8,0.8-3.4,1.9-4.8,3.2c-2.9,2.8-4.6,6.7-4.6,10.8h-5
	c0-2.7,0.5-5.4,1.6-7.9c2-4.8,5.8-8.6,10.7-10.6C470.6,187.5,473.3,187,476,187z M489.9,224.6v-3.8c-1.5,0.6-3.3,1.3-5.5,2.1
	c-2.2,0.8-4.4,1.6-6.6,2.5l-6,2.3l-3.9,1.5c-2,0.8-3.9,1.8-5.5,3.1c-1.8,1.3-2.8,3.5-2.7,5.7v4.2c0,2,0.4,4.1,1.2,5.9
	c1.5,3.6,4.4,6.5,8,8c3.8,1.6,8.1,1.6,11.8,0c3.6-1.5,6.5-4.4,8-8c0.8-1.9,1.2-3.9,1.2-5.9L489.9,224.6z"/>
<path class="st1" d="M525.5,257.5c2,0,4.1-0.4,5.9-1.2c3.6-1.5,6.5-4.4,8-8c0.8-1.9,1.2-3.9,1.2-5.9h5c0,2.7-0.5,5.4-1.6,7.9
	c-2,4.8-5.8,8.6-10.7,10.6c-5,2.1-10.7,2.1-15.8,0c-4.8-2-8.6-5.8-10.7-10.6c-1.1-2.5-1.6-5.2-1.6-7.9v-35.2c0-2.7,0.5-5.4,1.6-7.9
	c2-4.8,5.8-8.6,10.7-10.6c5-2.1,10.7-2.1,15.8,0c4.8,2,8.7,5.8,10.7,10.6c1.1,2.5,1.6,5.2,1.6,7.9h-5c0-2-0.4-4.1-1.2-5.9
	c-1.5-3.6-4.4-6.5-8-8c-3.8-1.6-8.1-1.6-11.8,0c-3.6,1.5-6.5,4.4-8,8c-0.8,1.9-1.2,3.9-1.2,5.9v35.3c0,2,0.4,4.1,1.2,5.9
	c1.5,3.6,4.4,6.5,8,8C521.4,257.1,523.4,257.5,525.5,257.5z"/>
<path class="st1" d="M577.3,187c5.2-0.1,10.1,2,13.6,5.9c1.7,1.9,3,4,3.9,6.4c1,2.5,1.4,5.2,1.4,7.9v54.6h-5v-6.2
	c-1.9,2.1-4.2,3.8-6.8,5c-2.6,1.3-5.5,1.9-8.4,1.9c-2.7,0-5.4-0.5-7.9-1.6c-4.8-2-8.6-5.8-10.7-10.6c-1.1-2.5-1.6-5.2-1.6-7.9v-4.2
	c0-6.2,3.8-10.7,11.4-13.5c0.9-0.4,2.4-1,4.6-1.8c2.2-0.8,4.5-1.7,6.9-2.6s4.8-1.9,7.1-2.7s4-1.5,5.3-2v-8.4
	c0.1-3.9-1.3-7.8-3.8-10.7c-2.5-2.9-6.2-4.6-10.1-4.4c-2,0-4,0.4-5.8,1.2c-1.8,0.8-3.4,1.9-4.8,3.2c-2.9,2.8-4.5,6.7-4.5,10.7h-5
	c0-2.7,0.5-5.4,1.6-7.9c2-4.8,5.8-8.6,10.7-10.6C571.9,187.5,574.6,187,577.3,187z M591.3,224.6v-3.8c-1.5,0.6-3.3,1.3-5.5,2.1
	c-2.2,0.8-4.4,1.6-6.6,2.5l-6,2.3l-3.9,1.5c-2,0.8-3.9,1.8-5.5,3.1c-1.8,1.3-2.8,3.5-2.7,5.7v4.2c0,2,0.4,4.1,1.2,5.9
	c1.5,3.6,4.4,6.5,8,8c3.8,1.6,8.1,1.6,11.8,0c1.8-0.8,3.4-1.9,4.8-3.2c1.4-1.4,2.5-3,3.2-4.8c0.8-1.9,1.2-3.9,1.2-5.9L591.3,224.6z"
	/>
<path class="st1" d="M647,154.1v107.5h-5v-6.1c-1.9,2.1-4.2,3.8-6.8,5c-2.6,1.3-5.5,1.9-8.4,1.9c-2.7,0-5.4-0.5-7.9-1.6
	c-4.8-2-8.6-5.8-10.7-10.6c-1.1-2.5-1.6-5.2-1.6-7.9v-35.2c0-2.7,0.5-5.4,1.6-7.9c2-4.8,5.9-8.7,10.7-10.7c8-3.4,17.3-1.3,23,5.3
	v-39.8H647z M626.9,257.5c2,0,4.1-0.4,5.9-1.2c1.8-0.8,3.4-1.9,4.8-3.2c1.4-1.4,2.5-3,3.2-4.8c0.8-1.9,1.2-3.9,1.2-5.9v-35.2
	c0-2-0.4-4.1-1.2-5.9c-0.8-1.8-1.9-3.4-3.2-4.8c-1.4-1.4-3-2.5-4.8-3.2c-3.8-1.6-8.1-1.6-11.8,0c-3.6,1.5-6.5,4.4-8,8
	c-0.8,1.9-1.2,3.9-1.2,5.9v35.2c0,2,0.4,4.1,1.2,5.9c1.5,3.6,4.4,6.5,8,8C622.8,257.1,624.8,257.5,626.9,257.5L626.9,257.5z"/>
<path class="st1" d="M687,220.6c-0.9,0.3-2.4,0.9-4.5,1.7s-4.4,1.7-6.8,2.6s-4.8,1.8-7.1,2.7s-4.1,1.5-5.4,2v12.7
	c0,2,0.4,4.1,1.2,5.9c1.5,3.6,4.4,6.5,8,8c3.8,1.6,8.1,1.6,11.8,0c3.6-1.5,6.5-4.4,8-8c0.8-1.9,1.2-3.9,1.2-5.9h5
	c0,2.7-0.5,5.4-1.6,7.9c-2,4.8-5.8,8.6-10.7,10.6c-5,2.1-10.7,2.1-15.8,0c-4.8-2-8.6-5.8-10.7-10.6c-1.1-2.5-1.6-5.2-1.6-7.9v-35.2
	c0-2.7,0.5-5.4,1.6-7.9c2-4.8,5.8-8.6,10.7-10.6c5-2.1,10.7-2.1,15.8,0c4.8,2,8.6,5.8,10.7,10.6c1,2.4,1.6,5.1,1.6,7.7v0.1
	C698.4,213.3,694.6,217.8,687,220.6z M678.3,192c-2,0-4.1,0.4-5.9,1.2c-3.6,1.5-6.5,4.4-8,8c-0.8,1.9-1.2,3.9-1.2,5.9v17.3
	c1.5-0.6,3.3-1.3,5.5-2.2s4.4-1.7,6.6-2.5c2.2-0.8,4.2-1.6,6.1-2.3l4-1.5c1.9-0.8,3.8-1.8,5.4-3.1c1.8-1.4,2.8-3.6,2.7-5.9
	c0-2-0.4-4-1.2-5.9c-0.8-1.8-1.9-3.4-3.2-4.7c-1.4-1.4-3-2.5-4.8-3.2C682.4,192.3,680.4,191.9,678.3,192L678.3,192z"/>
<g>
	<g>
		<path class="st1" d="M778.8,214l-45.7-45.7c-1.1-1.1-2.8-1.1-3.9,0c-1.1,1.1-1.1,2.8,0,3.9L773,216l-43.8,43.8
			c-1.1,1.1-1.1,2.8,0,3.9c0.5,0.5,1.2,0.8,1.9,0.8c0.7,0,1.4-0.3,1.9-0.8l45.7-45.7C779.9,216.8,779.9,215.1,778.8,214z"/>
	</g>
	<g>
	</g>
	<g>
	</g>
	<g>
	</g>
	<g>
	</g>
	<g>
	</g>
	<g>
	</g>
	<g>
	</g>
	<g>
	</g>
	<g>
	</g>
	<g>
	</g>
	<g>
	</g>
	<g>
	</g>
	<g>
	</g>
	<g>
	</g>
	<g>
	</g>
</g>
</svg>
