<?xml version="1.0" encoding="utf-8"?>
<!-- Generator: Adobe Illustrator 22.1.0, SVG Export Plug-In . SVG Version: 6.00 Build 0)  -->
<svg version="1.1" id="Layer_1" xmlns="http://www.w3.org/2000/svg" xmlns:xlink="http://www.w3.org/1999/xlink" x="0px" y="0px"
	 viewBox="0 0 991 431.6" style="enable-background:new 0 0 991 431.6;" xml:space="preserve">
<style type="text/css">
	.st0{fill:none;}
	.st1{fill:#FFFFFF;}
</style>
<title>logo</title>
<rect class="st0" width="991" height="431.6"/>
<path class="st1" d="M206.8,207.9c6.7,5.3,13.3,10.9,19.8,16.6c6.5,5.7,12.4,12,17.6,18.8c5.3,7,9.5,14.7,12.6,22.8
	c3.3,9.2,5,18.9,4.8,28.6c0,7.8-1.5,15.5-4.6,22.6c-5.9,13.8-16.8,24.9-30.6,30.8c-7.1,3.1-14.7,4.7-22.4,4.6
	c-7.8,0-15.5-1.5-22.6-4.6c-13.9-5.9-24.9-16.9-30.8-30.8c-3.1-7.1-4.6-14.8-4.6-22.6h13.2c0,6,1.2,11.9,3.6,17.4
	c4.6,10.7,13.1,19.2,23.8,23.8c5.5,2.4,11.4,3.6,17.4,3.6c5.9,0,11.8-1.2,17.2-3.6c5.2-2.3,10-5.6,14-9.6c4.1-4.1,7.3-8.9,9.6-14.2
	c2.4-5.5,3.6-11.4,3.6-17.4c0.1-8.3-1.3-16.6-4.2-24.4c-2.8-7.1-6.5-13.8-11.2-19.8c-4.8-6.1-10.1-11.7-16-16.8
	c-6-5.2-12.2-10.3-18.6-15.4c-6.4-5.1-12.7-10.3-19-15.8c-6.2-5.4-11.8-11.3-16.8-17.8c-5-6.5-9-13.6-12-21.2
	c-3.1-7.7-4.6-16.7-4.6-26.8c0-7.8,1.5-15.5,4.6-22.6c5.9-13.9,16.9-24.9,30.8-30.8c14.4-6.1,30.6-6.1,45-0.1
	c13.8,5.8,24.8,16.8,30.6,30.5c3.1,7.1,4.6,14.8,4.6,22.6h-13.2c0-5.9-1.2-11.8-3.6-17.2c-4.7-10.5-13.1-18.9-23.6-23.6
	c-5.4-2.4-11.3-3.6-17.2-3.6c-6,0-11.9,1.2-17.4,3.6c-5.3,2.3-10.1,5.6-14.2,9.6c-4,4-7.3,8.8-9.6,14c-2.4,5.4-3.6,11.3-3.6,17.2
	c-0.1,7.7,1.2,15.4,4,22.6c2.7,6.5,6.2,12.7,10.6,18.2c4.5,5.8,9.6,11.1,15.2,15.8C194.7,198.3,200.7,203.1,206.8,207.9z"/>
<path class="st1" d="M342.4,214.9l-52-134.4h14l45.2,116l45.2-116h14.4l-52.4,134.4l53.2,136h-14.4l-46-117.6L304,350.9h-14.4
	L342.4,214.9z"/>
<path class="st1" d="M443.2,337.8h95.2v13.2H430v-13.2l95.2-244H430V80.5h108.4v13.6L443.2,337.8z"/>
<path class="st1" d="M669.6,80.5v270.4h-13.2l-84.8-233.6v233.6h-13.2V80.5h13.2l84.8,233.6V80.5H669.6z"/>
<path class="st1" d="M758.4,207.9c6.7,5.3,13.3,10.9,19.8,16.6c6.5,5.7,12.4,12,17.6,18.8c5.3,7,9.5,14.7,12.6,22.8
	c3.3,9.2,5,18.9,4.8,28.6c0,7.8-1.5,15.5-4.6,22.6c-5.9,13.8-16.8,24.9-30.6,30.8c-7.1,3.1-14.7,4.7-22.4,4.6
	c-7.8,0-15.5-1.5-22.6-4.6c-13.9-5.9-24.9-16.9-30.8-30.8c-3.1-7.1-4.6-14.8-4.6-22.6h13.2c0,6,1.2,11.9,3.6,17.4
	c4.6,10.7,13.1,19.2,23.8,23.8c5.5,2.4,11.4,3.6,17.4,3.6c5.9,0,11.8-1.2,17.2-3.6c5.2-2.3,10-5.6,14-9.6c4.1-4.1,7.3-8.9,9.6-14.2
	c2.4-5.5,3.6-11.4,3.6-17.4c0.1-8.3-1.3-16.6-4.2-24.4c-2.7-7.1-6.5-13.8-11.2-19.8c-4.8-6.1-10.1-11.7-16-16.8
	c-6-5.2-12.2-10.3-18.6-15.4s-12.7-10.3-19-15.8c-6.2-5.4-11.8-11.3-16.8-17.8c-5-6.5-9-13.6-12-21.2c-3.1-7.7-4.6-16.7-4.6-26.8
	c0-7.8,1.5-15.5,4.6-22.6c5.9-13.9,16.9-24.9,30.8-30.8c14.4-6.1,30.6-6.1,45-0.1c13.8,5.8,24.8,16.8,30.6,30.5
	c3.1,7.1,4.6,14.8,4.6,22.6H800c0-5.9-1.2-11.8-3.6-17.2c-4.7-10.5-13.1-18.9-23.6-23.6c-5.4-2.4-11.3-3.6-17.2-3.6
	c-6,0-11.9,1.2-17.4,3.6c-5.3,2.3-10.1,5.6-14.2,9.6c-4,4-7.3,8.8-9.6,14c-2.4,5.4-3.6,11.3-3.6,17.2c-0.1,7.7,1.2,15.4,4,22.6
	c2.7,6.5,6.2,12.7,10.6,18.2c4.5,5.8,9.6,11.1,15.2,15.8C746.3,198.2,752.3,203.1,758.4,207.9z"/>
</svg>
