<?xml version="1.0" encoding="utf-8"?>
<!-- Generator: Adobe Illustrator 22.1.0, SVG Export Plug-In . SVG Version: 6.00 Build 0)  -->
<svg version="1.1" id="Layer_1" xmlns="http://www.w3.org/2000/svg" xmlns:xlink="http://www.w3.org/1999/xlink" x="0px" y="0px"
	 viewBox="0 0 991 431.6" style="enable-background:new 0 0 991 431.6;" xml:space="preserve">
<style type="text/css">
	.st0{fill:none;}
	.st1{fill:#FFFFFF;}
</style>
<title>merch</title>
<rect class="st0" width="991" height="431.6"/>
<rect x="101" y="44.4" width="788" height="343.2"/>
<path class="st1" d="M412.3,184c2.7,0,5.4,0.5,7.9,1.6c4.8,2,8.6,5.8,10.7,10.6c1.1,2.5,1.6,5.2,1.6,7.9v54.6h-5v-54.6
	c0-2-0.4-4.1-1.2-5.9c-1.5-3.6-4.4-6.5-8-8c-1.9-0.8-3.9-1.2-5.9-1.2c-2,0-4,0.4-5.8,1.2c-1.8,0.8-3.4,1.9-4.8,3.2
	c-2.9,2.8-4.5,6.7-4.5,10.7v54.6h-5v-54.6c0-2-0.4-4.1-1.2-5.9c-1.5-3.6-4.4-6.5-8-8c-3.8-1.6-8.1-1.6-11.8,0c-3.6,1.5-6.5,4.4-8,8
	c-0.8,1.9-1.2,3.9-1.2,5.9v54.6h-5v-74h5v6.1c7.3-8.4,20.1-9.3,28.5-1.9c1.7,1.5,3.2,3.3,4.3,5.4c1.7-3.1,4.2-5.7,7.2-7.5
	C405.1,185,408.7,184,412.3,184z"/>
<path class="st1" d="M471.8,217.6c-0.9,0.3-2.4,0.9-4.5,1.7s-4.4,1.7-6.8,2.6s-4.8,1.8-7.1,2.7s-4.1,1.5-5.4,2v12.7
	c0,2,0.4,4.1,1.2,5.9c1.5,3.6,4.4,6.5,8,8c3.8,1.6,8.1,1.6,11.8,0c3.6-1.5,6.5-4.4,8-8c0.8-1.9,1.2-3.9,1.2-5.9h5
	c0,2.7-0.5,5.4-1.6,7.9c-2,4.8-5.8,8.6-10.7,10.6c-5,2.1-10.7,2.1-15.8,0c-4.8-2-8.6-5.8-10.7-10.6c-1-2.5-1.5-5.2-1.5-7.9v-35.2
	c0-2.7,0.5-5.4,1.6-7.9c2-4.8,5.8-8.6,10.7-10.6c5-2.1,10.7-2.1,15.8,0c4.8,2,8.6,5.8,10.7,10.6c1,2.4,1.6,5.1,1.6,7.7v0.1
	C483.2,210.3,479.4,214.8,471.8,217.6z M463,189c-2,0-4.1,0.4-5.9,1.2c-3.6,1.5-6.5,4.4-8,8c-0.8,1.9-1.2,3.9-1.2,5.9v17.3
	c1.5-0.6,3.3-1.3,5.5-2.2s4.4-1.7,6.6-2.5c2.2-0.8,4.2-1.6,6.1-2.3l4-1.5c1.9-0.8,3.8-1.8,5.4-3.1c1.8-1.4,2.8-3.6,2.7-5.9
	c0-2-0.4-4-1.2-5.8c-0.8-1.8-1.9-3.4-3.2-4.7c-1.4-1.4-3-2.5-4.8-3.3C467.1,189.3,465.1,188.9,463,189L463,189z"/>
<path class="st1" d="M520.8,184v5H515c-2,0-4,0.4-5.8,1.2c-1.8,0.8-3.4,1.9-4.8,3.2c-2.9,2.8-4.6,6.7-4.6,10.8v54.6h-5v-69h-5v-5
	h9.9v6.1c3.7-4.3,9-6.9,14.7-6.9H520.8z"/>
<path class="st1" d="M549.9,254.5c2,0,4.1-0.4,5.9-1.2c3.6-1.5,6.5-4.4,8-8c0.8-1.9,1.2-3.9,1.2-5.9h5c0,2.7-0.5,5.4-1.6,7.9
	c-2,4.8-5.8,8.6-10.7,10.6c-5,2.1-10.7,2.1-15.8,0c-4.8-2-8.6-5.8-10.7-10.6c-1.1-2.5-1.6-5.2-1.6-7.9v-35.2c0-2.7,0.5-5.4,1.6-7.9
	c2-4.8,5.8-8.7,10.6-10.7c5-2.1,10.7-2.1,15.8,0c4.8,2,8.6,5.8,10.7,10.6c1.1,2.5,1.6,5.2,1.6,7.9h-5c0-2-0.4-4.1-1.2-5.9
	c-1.5-3.6-4.4-6.5-8-8c-3.8-1.6-8-1.6-11.8-0.1c-3.6,1.5-6.5,4.4-8,8c-0.8,1.9-1.2,3.9-1.2,5.9v35.3c0,2,0.4,4.1,1.2,5.9
	c1.5,3.6,4.4,6.5,8,8C545.9,254.1,547.9,254.5,549.9,254.5z"/>
<path class="st1" d="M599.1,184c2.7,0,5.4,0.5,7.9,1.6c7.5,3.1,12.3,10.5,12.2,18.6v54.6h-5v-54.6c0-2-0.4-4.1-1.2-5.9
	c-1.5-3.6-4.4-6.5-8-8c-3.8-1.6-8.1-1.6-11.8,0c-3.6,1.5-6.5,4.4-8,8c-0.8,1.9-1.2,3.9-1.2,5.9v54.6h-5V151.1h5v39.8
	C587.8,186.5,593.3,183.9,599.1,184L599.1,184z"/>
<g>
	<g>
		<path class="st1" d="M695,214l-45.7-45.7c-1.1-1.1-2.8-1.1-3.9,0c-1.1,1.1-1.1,2.8,0,3.9l43.8,43.8l-43.8,43.8
			c-1.1,1.1-1.1,2.8,0,3.9c0.5,0.5,1.2,0.8,1.9,0.8c0.7,0,1.4-0.3,1.9-0.8l45.7-45.7C696,216.8,696,215.1,695,214z"/>
	</g>
	<g>
	</g>
	<g>
	</g>
	<g>
	</g>
	<g>
	</g>
	<g>
	</g>
	<g>
	</g>
	<g>
	</g>
	<g>
	</g>
	<g>
	</g>
	<g>
	</g>
	<g>
	</g>
	<g>
	</g>
	<g>
	</g>
	<g>
	</g>
	<g>
	</g>
</g>
</svg>
