<?xml version="1.0" encoding="utf-8"?>
<!-- Generator: Adobe Illustrator 22.1.0, SVG Export Plug-In . SVG Version: 6.00 Build 0)  -->
<svg version="1.1" id="Layer_1" xmlns="http://www.w3.org/2000/svg" xmlns:xlink="http://www.w3.org/1999/xlink" x="0px" y="0px"
	 viewBox="0 0 991 431.6" style="enable-background:new 0 0 991 431.6;" xml:space="preserve">
<style type="text/css">
	.st0{fill:none;}
	.st1{fill:#FFFFFF;}
</style>
<title>tour</title>
<rect class="st0" width="991" height="431.6"/>
<rect x="101" y="44.4" width="788" height="343.2"/>
<path class="st1" d="M417,222.6v17.7c0,2,0.3,4,1,5.9c0.6,1.8,1.6,3.4,2.8,4.8c1.2,1.3,2.6,2.4,4.2,3.2c1.6,0.8,3.3,1.2,5.1,1.2v5
	c-2.4,0-4.8-0.5-7-1.6c-2.2-1-4.1-2.5-5.8-4.3c-1.7-1.9-3-4-3.9-6.4c-1-2.5-1.5-5.2-1.5-7.9v-75.6h5v21h16.2v5H417V222.6z"/>
<path class="st1" d="M457.8,260.4c-2.7,0-5.4-0.5-7.9-1.6c-4.8-2-8.6-5.8-10.7-10.6c-1.1-2.5-1.6-5.2-1.6-7.9v-35.2
	c0-2.7,0.5-5.4,1.6-7.9c2-4.8,5.8-8.6,10.7-10.6c5-2.1,10.7-2.1,15.8,0c4.8,2,8.6,5.8,10.7,10.6c1.1,2.5,1.6,5.2,1.6,7.9v35.2
	c0,2.7-0.5,5.4-1.6,7.9c-2,4.8-5.8,8.6-10.7,10.6C463.1,259.9,460.5,260.5,457.8,260.4z M457.8,189.9c-2,0-4.1,0.4-5.9,1.2
	c-3.6,1.5-6.5,4.4-8,8c-0.8,1.9-1.2,3.9-1.2,5.9v35.3c0,2,0.4,4.1,1.2,5.9c1.5,3.6,4.4,6.5,8,8c3.8,1.6,8.1,1.6,11.8,0
	c3.6-1.5,6.5-4.4,8-8c0.8-1.9,1.2-3.9,1.2-5.9v-35.2c0-2-0.4-4.1-1.2-5.9c-1.5-3.6-4.4-6.5-8-8C461.8,190.4,459.8,190,457.8,189.9z"
	/>
<path class="st1" d="M528.5,185.8v73.9h-5v-6.1c-1.9,2.1-4.2,3.8-6.8,5c-2.6,1.3-5.5,1.9-8.4,1.9c-2.7,0-5.4-0.5-7.9-1.6
	c-4.8-2-8.6-5.8-10.7-10.6c-1.1-2.5-1.6-5.2-1.6-7.9v-54.6h5v54.6c0,2,0.4,4.1,1.2,5.9c1.5,3.6,4.4,6.5,8,8c3.8,1.6,8.1,1.6,11.8,0
	c3.6-1.5,6.5-4.4,8-8c0.8-1.9,1.2-3.9,1.2-5.9v-54.6H528.5z"/>
<path class="st1" d="M570,185v5h-5.9c-2,0-4,0.4-5.8,1.2c-1.8,0.8-3.4,1.9-4.8,3.2c-2.9,2.8-4.5,6.7-4.5,10.8v54.6h-5v-69h-5v-5h10
	v6.1c3.7-4.3,9-6.9,14.7-6.9H570z"/>
<g>
	<g>
		<path class="st1" d="M647.4,221.2l-45.7-45.7c-1.1-1.1-2.8-1.1-3.9,0c-1.1,1.1-1.1,2.8,0,3.9l43.8,43.8l-43.8,43.8
			c-1.1,1.1-1.1,2.8,0,3.9c0.5,0.5,1.2,0.8,1.9,0.8c0.7,0,1.4-0.3,1.9-0.8l45.7-45.7C648.4,224,648.4,222.2,647.4,221.2z"/>
	</g>
	<g>
	</g>
	<g>
	</g>
	<g>
	</g>
	<g>
	</g>
	<g>
	</g>
	<g>
	</g>
	<g>
	</g>
	<g>
	</g>
	<g>
	</g>
	<g>
	</g>
	<g>
	</g>
	<g>
	</g>
	<g>
	</g>
	<g>
	</g>
	<g>
	</g>
</g>
</svg>
