<?xml version="1.0" encoding="utf-8"?>
<!-- Generator: Adobe Illustrator 22.1.0, SVG Export Plug-In . SVG Version: 6.00 Build 0)  -->
<svg version="1.1" id="Layer_1" xmlns="http://www.w3.org/2000/svg" xmlns:xlink="http://www.w3.org/1999/xlink" x="0px" y="0px"
	 viewBox="0 0 991 431.6" style="enable-background:new 0 0 991 431.6;" xml:space="preserve">
<style type="text/css">
	.st0{fill:none;}
	.st1{fill:#FFFFFF;}
</style>
<title>tracklist</title>
<rect class="st0" width="991" height="431.6"/>
<path class="st1" d="M336,224.6v17.7c0,2,0.3,4,1,5.9c0.6,1.8,1.6,3.4,2.8,4.8c1.2,1.3,2.6,2.4,4.2,3.2c1.6,0.8,3.3,1.2,5.1,1.2v5
	c-2.4,0-4.8-0.5-7-1.6c-2.2-1-4.1-2.5-5.8-4.3c-1.7-1.9-3-4-3.9-6.4c-1-2.5-1.5-5.2-1.5-7.9v-75.6h5v21h16.2v5H336V224.6z"/>
<path class="st1" d="M389,187v5h-5.8c-2,0-4,0.4-5.8,1.2s-3.4,1.9-4.8,3.2c-2.9,2.8-4.5,6.7-4.5,10.7v54.6h-5v-69h-5v-5h9.9v6.1
	c3.7-4.3,9-6.9,14.7-6.9h6.3V187z"/>
<path class="st1" d="M413.3,187c5.2-0.1,10.1,2,13.6,5.9c1.7,1.9,3,4,3.9,6.4c1,2.5,1.4,5.2,1.4,7.9v54.6h-5v-6.2
	c-1.9,2.1-4.2,3.8-6.8,5c-2.6,1.3-5.5,1.9-8.4,1.9c-2.7,0-5.4-0.5-7.9-1.6c-2.4-1-4.5-2.5-6.4-4.3c-1.8-1.8-3.3-4-4.3-6.4
	c-1.1-2.5-1.6-5.2-1.6-7.9v-4.2c0-6.2,3.8-10.7,11.4-13.5c0.9-0.4,2.4-1,4.6-1.8s4.5-1.7,6.9-2.6s4.8-1.9,7.1-2.7s4-1.5,5.3-2v-8.4
	c0.1-3.9-1.3-7.8-3.8-10.7s-6.2-4.6-10.1-4.4c-2,0-4,0.4-5.8,1.2s-3.4,1.9-4.8,3.2c-2.9,2.8-4.5,6.7-4.5,10.7h-5
	c0-2.7,0.5-5.4,1.6-7.9c2-4.8,5.8-8.6,10.7-10.6C407.9,187.5,410.6,187,413.3,187z M427.3,224.6v-3.8c-1.5,0.6-3.3,1.3-5.5,2.1
	s-4.4,1.6-6.6,2.5l-6,2.3l-3.9,1.5c-2,0.8-3.9,1.8-5.5,3.1c-1.8,1.3-2.8,3.5-2.7,5.7v4.2c0,2,0.4,4.1,1.2,5.9c1.5,3.6,4.4,6.5,8,8
	c3.8,1.6,8.1,1.6,11.8,0c3.6-1.5,6.5-4.4,8-8c0.8-1.9,1.2-3.9,1.2-5.9V224.6z"/>
<path class="st1" d="M462.8,257.5c2,0,4.1-0.4,5.9-1.2c3.6-1.5,6.5-4.4,8-8c0.8-1.9,1.2-3.9,1.2-5.9h5c0,2.7-0.5,5.4-1.6,7.9
	c-2,4.8-5.8,8.6-10.7,10.6c-5,2.1-10.7,2.1-15.8,0c-4.8-2-8.6-5.8-10.7-10.6c-1.1-2.5-1.6-5.2-1.6-7.9v-35.2c0-2.7,0.5-5.4,1.6-7.9
	c2-4.8,5.8-8.7,10.7-10.7c5-2.1,10.7-2.1,15.8,0c4.8,2,8.6,5.8,10.7,10.6c1.1,2.5,1.6,5.2,1.6,7.9h-5c0-2-0.4-4.1-1.2-5.9
	c-1.5-3.6-4.4-6.5-8-8c-3.8-1.6-8.1-1.6-11.8,0c-3.6,1.5-6.5,4.4-8,8c-0.8,1.9-1.2,3.9-1.2,5.9v35.2c0,2,0.4,4.1,1.2,5.9
	c1.5,3.6,4.4,6.5,8,8C458.8,257.1,460.8,257.5,462.8,257.5z"/>
<path class="st1" d="M530.3,261.7l-24.6-40.2h-7.3v40.2h-5V154.1h5v62.4h7.2l0.6-0.3l19.2-28.5h6l-21.2,31.5l26,42.5H530.3z"/>
<path class="st1" d="M542.2,261.7V154.1h5v107.5h-5V261.7z"/>
<path class="st1" d="M562.8,186.5h5v74.1h-5v-69h-5v-5.1H562.8z M564,169.4c-2.1,0-3.8-1.7-3.8-3.8s1.7-3.8,3.8-3.8l0,0
	c1,0,1.9,0.4,2.6,1c1.5,1.5,1.5,3.9,0,5.4l0,0C565.9,169.1,565,169.4,564,169.4L564,169.4z"/>
<path class="st1" d="M600.3,222.4c2.2,1.1,4.4,2.3,6.7,3.5c2.2,1.2,4.2,2.6,6.1,4.3c1.7,1.5,3.2,3.3,4.4,5.3
	c1.2,2.1,1.8,4.4,1.7,6.8c0,5.3-2.1,10.5-5.9,14.3c-3.8,3.8-8.9,5.9-14.3,5.9c-2.7,0-5.4-0.5-7.9-1.6c-4.8-2-8.6-5.8-10.7-10.6
	c-1-2.5-1.5-5.2-1.5-7.9h5c0,2,0.4,4.1,1.2,5.9c0.8,1.8,1.8,3.4,3.2,4.8c1.4,1.4,3,2.5,4.8,3.2c3.8,1.6,8.1,1.6,11.8,0
	c1.8-0.8,3.4-1.9,4.8-3.2c1.4-1.4,2.5-3,3.2-4.8c0.8-1.9,1.2-3.9,1.2-5.9c0-1.7-0.4-3.4-1.3-4.9c-1-1.5-2.2-2.9-3.6-4
	c-1.6-1.3-3.4-2.4-5.2-3.4c-2-1.1-4-2.1-6.1-3.2c-2.3-1.1-4.6-2.3-6.8-3.5s-4.2-2.6-6.1-4.2c-1.8-1.5-3.3-3.3-4.4-5.3
	c-1.2-2.1-1.8-4.4-1.7-6.7c0-2.7,0.5-5.4,1.6-7.9c2-4.8,5.8-8.6,10.7-10.6c5-2.1,10.7-2.1,15.8,0c7.4,3.2,12.2,10.5,12.2,18.5h-5
	c0-2.1-0.4-4.1-1.2-6c-0.8-1.8-1.9-3.4-3.2-4.8c-1.4-1.4-3-2.4-4.8-3.2c-3.8-1.6-8.1-1.6-11.8,0c-1.8,0.8-3.4,1.9-4.8,3.2
	c-1.4,1.4-2.5,3-3.2,4.8c-0.8,1.9-1.2,3.9-1.2,5.9c0,1.7,0.4,3.4,1.3,4.9c1,1.5,2.2,2.9,3.7,4c1.7,1.3,3.4,2.4,5.3,3.4
	C596.1,220.4,598.1,221.4,600.3,222.4z"/>
<path class="st1" d="M633.8,224.6v17.7c0,2,0.3,4,1,5.9c0.6,1.8,1.6,3.4,2.8,4.8c1.2,1.3,2.6,2.4,4.2,3.2c1.6,0.8,3.3,1.2,5.1,1.2v5
	c-2.4,0-4.8-0.5-7-1.6c-2.2-1-4.1-2.5-5.8-4.3c-1.7-1.9-3-4-3.9-6.4c-1-2.5-1.4-5.2-1.4-7.9v-75.6h5v21H650v5h-16.2L633.8,224.6z"/>
<g>
	<g>
		<path class="st1" d="M730.8,212.7L685.1,167c-1.1-1.1-2.8-1.1-3.9,0c-1.1,1.1-1.1,2.8,0,3.9l43.8,43.8l-43.8,43.8
			c-1.1,1.1-1.1,2.8,0,3.9c0.5,0.5,1.2,0.8,1.9,0.8s1.4-0.3,1.9-0.8l45.7-45.7C731.9,215.5,731.9,213.7,730.8,212.7z"/>
	</g>
</g>
</svg>
