<svg id="Layer_1" data-name="Layer 1" xmlns="http://www.w3.org/2000/svg" viewBox="0 0 991 431.61"><defs><style>.cls-1{fill:none;}.cls-2{fill:#fff;}</style></defs><title>who</title><rect class="cls-1" width="991" height="431.61"/><rect x="101" y="44.37" width="788" height="343.2"/><path class="cls-2" d="M625.6,321.6,580.8,518.8H561.2l-28.4-160-28.4,160h-20L440,321.6h13.6L494,500.8l32-179.2h13.6l32,179.2L612,321.6Z" transform="translate(-188 -167.85)"/><path class="cls-2" d="M695.2,319.6a52.79,52.79,0,0,1,21,4.2,52.9,52.9,0,0,1,28.4,28.4,52.72,52.72,0,0,1,4.2,21V518.8H735.6V373.2a39.42,39.42,0,0,0-3.2-15.8A40,40,0,0,0,711,336a40.61,40.61,0,0,0-31.6,0A40,40,0,0,0,658,357.4a39.25,39.25,0,0,0-3.2,15.8V518.8H641.6V232h13.2V338a52.56,52.56,0,0,1,40.4-18.4Z" transform="translate(-188 -167.85)"/><path class="cls-2" d="M830.4,520.8a52.72,52.72,0,0,1-21-4.2A52.9,52.9,0,0,1,781,488.2a52.79,52.79,0,0,1-4.2-21v-94a52.72,52.72,0,0,1,4.2-21,52.9,52.9,0,0,1,28.4-28.4,54.6,54.6,0,0,1,42,0,52.9,52.9,0,0,1,28.4,28.4,52.72,52.72,0,0,1,4.2,21v94a52.79,52.79,0,0,1-4.2,21,52.9,52.9,0,0,1-28.4,28.4A52.79,52.79,0,0,1,830.4,520.8Zm0-188a39.25,39.25,0,0,0-15.8,3.2,40,40,0,0,0-21.4,21.4,39.25,39.25,0,0,0-3.2,15.8v94a39.29,39.29,0,0,0,3.2,15.8,40,40,0,0,0,21.4,21.4,40.61,40.61,0,0,0,31.6,0A40,40,0,0,0,867.6,483a39.46,39.46,0,0,0,3.2-15.8v-94a39.42,39.42,0,0,0-3.2-15.8A40,40,0,0,0,846.2,336,39.29,39.29,0,0,0,830.4,332.8Z" transform="translate(-188 -167.85)"/></svg>